<?xml version="1.0" encoding="UTF-8" standalone="no"?>
<svg xmlns="http://www.w3.org/2000/svg" width="200" height="60" viewBox="0 0 200 60">
  <style>
    .logo-text { font-family: 'Arial', sans-serif; font-weight: bold; }
    .primary { fill: #e50914; }
    .secondary { fill: #000000; }
  </style>
  <g>
    <path class="primary" d="M20,10 L40,10 C45.5,10 50,14.5 50,20 L50,40 C50,45.5 45.5,50 40,50 L20,50 C14.5,50 10,45.5 10,40 L10,20 C10,14.5 14.5,10 20,10 Z" />
    <text x="65" y="35" class="logo-text primary" font-size="24">FRANCI</text>
    <text x="155" y="35" class="logo-text secondary" font-size="24">FY</text>
    <path class="secondary" d="M25,20 L35,20 L35,25 L30,25 L30,30 L34,30 L34,35 L30,35 L30,40 L25,40 Z" fill="white" />
  </g>
</svg>